<svg width="16" height="16" viewBox="0 0 16 16" fill="none" xmlns="http://www.w3.org/2000/svg">
<path d="M1.33301 6.00001C1.86344 6.00001 2.37215 6.21072 2.74722 6.5858C3.12229 6.96087 3.33301 7.46958 3.33301 8.00001C3.33301 8.53044 3.12229 9.03915 2.74722 9.41422C2.37215 9.7893 1.86344 10 1.33301 10V11.3333C1.33301 11.687 1.47348 12.0261 1.72353 12.2762C1.97358 12.5262 2.31272 12.6667 2.66634 12.6667H13.333C13.6866 12.6667 14.0258 12.5262 14.2758 12.2762C14.5259 12.0261 14.6663 11.687 14.6663 11.3333V10C14.1359 10 13.6272 9.7893 13.2521 9.41422C12.8771 9.03915 12.6663 8.53044 12.6663 8.00001C12.6663 7.46958 12.8771 6.96087 13.2521 6.5858C13.6272 6.21072 14.1359 6.00001 14.6663 6.00001V4.66668C14.6663 4.31305 14.5259 3.97392 14.2758 3.72387C14.0258 3.47382 13.6866 3.33334 13.333 3.33334H2.66634C2.31272 3.33334 1.97358 3.47382 1.72353 3.72387C1.47348 3.97392 1.33301 4.31305 1.33301 4.66668V6.00001Z" stroke="white" stroke-opacity="0.6" stroke-width="1.33333" stroke-linecap="round" stroke-linejoin="round"/>
<path d="M8.66699 3.33334V4.66668" stroke="white" stroke-opacity="0.6" stroke-width="1.33333" stroke-linecap="round" stroke-linejoin="round"/>
<path d="M8.66699 11.3333V12.6667" stroke="white" stroke-opacity="0.6" stroke-width="1.33333" stroke-linecap="round" stroke-linejoin="round"/>
<path d="M8.66699 7.33334V8.66668" stroke="white" stroke-opacity="0.6" stroke-width="1.33333" stroke-linecap="round" stroke-linejoin="round"/>
</svg>
